<mxfile host="Electron" agent="Mozilla/5.0 (Windows NT 10.0; Win64; x64) AppleWebKit/537.36 (KHTML, like Gecko) draw.io/26.2.2 Chrome/134.0.6998.178 Electron/35.1.2 Safari/537.36" version="26.2.2">
  <diagram name="Page-1" id="TkfVpZ6T9hU2PJNazn0Q">
    <mxGraphModel dx="774" dy="501" grid="1" gridSize="10" guides="1" tooltips="1" connect="1" arrows="1" fold="1" page="1" pageScale="1" pageWidth="850" pageHeight="1100" math="0" shadow="0">
      <root>
        <mxCell id="0" />
        <mxCell id="1" parent="0" />
        <mxCell id="BablGasGX6R6bWT4nZvp-1" value="" style="verticalAlign=top;align=left;spacingTop=8;spacingLeft=2;spacingRight=12;shape=cube;size=10;direction=south;fontStyle=4;html=1;whiteSpace=wrap;" vertex="1" parent="1">
          <mxGeometry x="60" y="40" width="180" height="120" as="geometry" />
        </mxCell>
        <mxCell id="BablGasGX6R6bWT4nZvp-2" value="" style="verticalAlign=top;align=left;spacingTop=8;spacingLeft=2;spacingRight=12;shape=cube;size=10;direction=south;fontStyle=4;html=1;whiteSpace=wrap;" vertex="1" parent="1">
          <mxGeometry x="400" y="160" width="180" height="120" as="geometry" />
        </mxCell>
        <mxCell id="BablGasGX6R6bWT4nZvp-3" value="" style="verticalAlign=top;align=left;spacingTop=8;spacingLeft=2;spacingRight=12;shape=cube;size=10;direction=south;fontStyle=4;html=1;whiteSpace=wrap;" vertex="1" parent="1">
          <mxGeometry x="60" y="350" width="180" height="120" as="geometry" />
        </mxCell>
        <mxCell id="BablGasGX6R6bWT4nZvp-8" value="&lt;b&gt;Serveur&lt;/b&gt;&lt;div&gt;&lt;b&gt;Web Server&lt;/b&gt;&lt;/div&gt;" style="text;html=1;align=center;verticalAlign=middle;whiteSpace=wrap;rounded=0;" vertex="1" parent="1">
          <mxGeometry x="100" y="50" width="100" height="40" as="geometry" />
        </mxCell>
        <mxCell id="BablGasGX6R6bWT4nZvp-9" value="&lt;span style=&quot;font-size: 9pt; line-height: 107%; font-family: Helvetica, sans-serif; background-image: initial; background-position: initial; background-size: initial; background-repeat: initial; background-attachment: initial; background-origin: initial; background-clip: initial;&quot;&gt;&lt;b&gt;Serveur de base de donnee&lt;/b&gt;&lt;/span&gt;" style="text;html=1;align=center;verticalAlign=middle;whiteSpace=wrap;rounded=0;" vertex="1" parent="1">
          <mxGeometry x="90" y="370" width="100" height="30" as="geometry" />
        </mxCell>
        <mxCell id="BablGasGX6R6bWT4nZvp-11" value="&amp;lt;&amp;lt;artifact&amp;gt;&amp;gt;&lt;div&gt;Application web&lt;/div&gt;" style="html=1;whiteSpace=wrap;" vertex="1" parent="1">
          <mxGeometry x="95" y="100" width="110" height="50" as="geometry" />
        </mxCell>
        <mxCell id="BablGasGX6R6bWT4nZvp-12" value="&amp;lt;&amp;lt;artifact&amp;gt;&amp;gt;&lt;div&gt;Navigateur&lt;/div&gt;" style="html=1;whiteSpace=wrap;" vertex="1" parent="1">
          <mxGeometry x="435" y="220" width="110" height="50" as="geometry" />
        </mxCell>
        <mxCell id="BablGasGX6R6bWT4nZvp-13" value="&amp;lt;&amp;lt;artifact&amp;gt;&amp;gt;&lt;div&gt;MySQL&lt;/div&gt;" style="html=1;whiteSpace=wrap;" vertex="1" parent="1">
          <mxGeometry x="85" y="410" width="110" height="50" as="geometry" />
        </mxCell>
        <mxCell id="BablGasGX6R6bWT4nZvp-16" value="&lt;b&gt;: Ordinateur&lt;/b&gt;&lt;div&gt;&lt;b&gt;Smartphone&lt;/b&gt;&lt;/div&gt;" style="text;html=1;align=center;verticalAlign=middle;whiteSpace=wrap;rounded=0;" vertex="1" parent="1">
          <mxGeometry x="445" y="170" width="90" height="40" as="geometry" />
        </mxCell>
        <mxCell id="BablGasGX6R6bWT4nZvp-18" value="" style="endArrow=none;html=1;rounded=0;exitX=0.667;exitY=1;exitDx=0;exitDy=0;exitPerimeter=0;entryX=0.658;entryY=-0.007;entryDx=0;entryDy=0;entryPerimeter=0;" edge="1" parent="1" source="BablGasGX6R6bWT4nZvp-2" target="BablGasGX6R6bWT4nZvp-1">
          <mxGeometry width="50" height="50" relative="1" as="geometry">
            <mxPoint x="370" y="290" as="sourcePoint" />
            <mxPoint x="340" y="220" as="targetPoint" />
          </mxGeometry>
        </mxCell>
        <mxCell id="BablGasGX6R6bWT4nZvp-20" value="" style="endArrow=none;html=1;rounded=0;entryX=1.003;entryY=0.581;entryDx=0;entryDy=0;entryPerimeter=0;exitX=-0.025;exitY=0.585;exitDx=0;exitDy=0;exitPerimeter=0;" edge="1" parent="1" source="BablGasGX6R6bWT4nZvp-3" target="BablGasGX6R6bWT4nZvp-1">
          <mxGeometry width="50" height="50" relative="1" as="geometry">
            <mxPoint x="370" y="290" as="sourcePoint" />
            <mxPoint x="420" y="240" as="targetPoint" />
          </mxGeometry>
        </mxCell>
        <mxCell id="BablGasGX6R6bWT4nZvp-21" value="&lt;b&gt;HTTPS&lt;/b&gt;" style="text;html=1;align=center;verticalAlign=middle;whiteSpace=wrap;rounded=0;rotation=0;" vertex="1" parent="1">
          <mxGeometry x="290" y="130" width="70" height="40" as="geometry" />
        </mxCell>
      </root>
    </mxGraphModel>
  </diagram>
</mxfile>
